<?xml version="1.0" encoding="UTF-8" standalone="no"?>
<!-- Created with Inkscape (http://www.inkscape.org/) -->

<svg
   version="1.1"
   id="svg2"
   width="427.62668"
   height="534.79999"
   viewBox="0 0 327.62668 534.79999"
   sodipodi:docname="Logo_Hi_FR_Verti_cmyk.eps"
   xmlns:inkscape="http://www.inkscape.org/namespaces/inkscape"
   xmlns:sodipodi="http://sodipodi.sourceforge.net/DTD/sodipodi-0.dtd"
   xmlns="http://www.w3.org/2000/svg"
   xmlns:svg="http://www.w3.org/2000/svg">
  <defs
     id="defs6" />
  <sodipodi:namedview
     id="namedview4"
     pagecolor="#ffffff"
     bordercolor="#000000"
     borderopacity="0.25"
     inkscape:showpageshadow="2"
     inkscape:pageopacity="0.0"
     inkscape:pagecheckerboard="0"
     inkscape:deskcolor="#d1d1d1" />
  <g
     id="g8"
     inkscape:groupmode="layer"
     inkscape:label="ink_ext_XXXXXX"
     transform="matrix(1.3333333,0,0,-1.3333333,0,534.8)">
    <g
       id="g10"
       transform="scale(0.1)">
      <path
         d="m 803.422,2386.46 c 69.586,0 125.996,56.41 125.996,126 v 375.17 l 173.422,-0.01 v -375.16 c 0,-69.59 56.41,-126 126,-126 69.59,0 126,56.41 126,126 v 1120.52 c 0,69.59 -56.41,126 -126,126 -69.59,0 -126,-56.41 -126,-126 v -493.36 l -173.422,0.01 v 250.84 c 0,69.59 -56.41,126 -125.996,126 -69.59,0 -126,-56.41 -126,-126 v -878.01 c 0,-69.59 56.41,-126 126,-126"
         style="fill:#0e87d2;fill-opacity:1;fill-rule:nonzero;stroke:none"
         id="path12" />
      <path
         d="m 1654.27,2170.45 c 69.59,0 125.99,56.4 125.99,125.99 v 761.44 c 0,69.59 -56.4,126.01 -125.99,126.01 -69.59,0 -126.01,-56.42 -126.01,-126.01 v -761.44 c 0,-69.59 56.42,-125.99 126.01,-125.99"
         style="fill:#0e87d2;fill-opacity:1;fill-rule:nonzero;stroke:none"
         id="path14" />
      <path
         d="m 1654.27,3228.89 c 69.59,0 125.99,56.41 125.99,125.99 v 35.59 c 0,69.59 -56.4,126 -125.99,126 -69.59,0 -126.01,-56.41 -126.01,-126 v -35.59 c 0,-69.58 56.42,-125.99 126.01,-125.99"
         style="fill:#0e87d2;fill-opacity:1;fill-rule:nonzero;stroke:none"
         id="path16" />
      <path
         d="m 2206.19,2523.36 c -64.37,26.45 -137.99,-4.29 -164.43,-68.66 -2.05,-4.99 -206.67,-501.75 -344.24,-732.58 -100.22,-168.15 -280.46,-368.6 -570.01,-368.6 -165.592,0 -321.127,64.77 -437.947,182.36 -116.805,117.57 -182.711,275.01 -185.579,443.31 -4.859,285.04 -0.035,1070.01 0.016,1077.91 0.434,69.58 -55.625,126.35 -125.211,126.78 -0.273,0.01 -0.531,0.01 -0.805,0.01 -69.214,0 -125.546,-55.91 -125.98,-125.22 -0.051,-7.92 -4.891,-795.82 0.012,-1083.78 3.984,-233.67 95.886,-452.66 258.769,-616.61 164.485,-165.57 383.508,-256.75 616.725,-256.75 168.63,0 325.01,47.44 464.79,141.02 124.49,83.32 232.72,201.27 321.69,350.56 147.01,246.66 352.19,744.73 360.85,765.81 26.45,64.37 -4.28,137.99 -68.65,164.44"
         style="fill:#0e87d2;fill-opacity:1;fill-rule:nonzero;stroke:none"
         id="path18" />
      <path
         d="m 2189.6,651.328 c 0.3,-0.648 0.47,-1.367 0.47,-2.117 v 0 c 0,-1.832 -0.98,-3.441 -2.43,-4.352 -18.19,-11.218 -43.44,-20.398 -83.6,-20.398 -79.07,0 -121.24,53.18 -121.24,116.48 0,65.059 44.37,113.848 115.09,113.848 65.89,0 110.26,-43.508 110.26,-117.801 v -18.91 h -153.31 l 0.44,-0.879 c 10.1,-20.211 33.41,-32.508 51.67,-32.508 20.83,0 39.14,5.598 53.96,15.649 0.76,0.531 1.64,0.828 2.59,0.828 v 0 c 2.09,0 3.89,-1.5 4.71,-3.637 z m -90.19,148.141 c -21.91,0 -39.84,-9.469 -46.81,-33.391 h 89.14 c -2.49,18.442 -17.92,33.391 -42.33,33.391 z m 3.3,136.351 c 1.86,3.481 6.74,3.481 6.74,3.481 h 64.61 c 4.1,0 1.69,-3.039 1.69,-3.039 l -47.7,-54.282 c -2.23,-3.058 -6.01,-3.058 -6.01,-3.058 h -47.53 c -3.77,0 -2.33,3.496 -2.33,3.496 l 30.53,53.402"
         style="fill:#0e87d2;fill-opacity:1;fill-rule:nonzero;stroke:none"
         id="path20" />
      <path
         d="m 1741.24,361.898 c 0,-70.328 47.82,-115.168 111.58,-115.168 63.76,0 111.58,44.84 111.58,115.168 0,70.332 -47.82,115.172 -111.58,115.172 -63.76,0 -111.58,-44.84 -111.58,-115.172 z m 156.13,0 c 0,-29.007 -20.85,-46.16 -44.55,-46.16 -23.7,0 -44.55,17.153 -44.55,46.16 0,29.012 20.85,46.153 44.55,46.153 23.7,0 44.55,-17.141 44.55,-46.153"
         style="fill:#0e87d2;fill-opacity:1;fill-rule:nonzero;stroke:none"
         id="path22" />
      <path
         d="m 322.285,932.34 c 0,2.801 -2.297,5.101 -5.101,5.101 h -60.079 c -2.808,0 -5.097,-2.3 -5.097,-5.101 V 634.828 c 0,-2.797 2.289,-5.098 5.097,-5.098 h 60.079 c 2.804,0 5.101,2.301 5.101,5.098 l 0.004,101.723 c 0,32.969 17.727,50.109 41.008,50.109 21.09,0 38.969,-11.43 38.969,-40.441 V 634.828 c 0,-2.797 2.297,-5.098 5.097,-5.098 h 60.957 c 2.809,0 5.102,2.301 5.102,5.098 l 0.008,135.57 c 0,54.063 -28.707,84.391 -77.028,84.391 -33.828,0 -60.496,-16.699 -74.113,-38.238 l -0.004,115.789"
         style="fill:#0e87d2;fill-opacity:1;fill-rule:nonzero;stroke:none"
         id="path24" />
      <path
         d="m 731.703,844.418 c 0,2.801 -2.293,5.102 -5.098,5.102 h -60.527 c -2.801,0 -5.098,-2.301 -5.098,-5.102 V 742.699 c 0,-32.969 -19.464,-50.097 -41.429,-50.097 -16.696,0 -32.207,10.097 -32.207,39.117 v 112.699 c 0,2.801 -2.293,5.102 -5.102,5.102 h -61.84 c -2.808,0 -5.097,-2.301 -5.097,-5.102 V 708.859 c 0,-54.07 27.668,-84.398 72.918,-84.398 32.945,0 61.777,18.461 75.394,39.559 v -29.192 c 0,-2.797 2.289,-5.098 5.098,-5.098 h 57.894 c 2.805,0 5.102,2.301 5.102,5.098 l -0.008,209.59"
         style="fill:#0e87d2;fill-opacity:1;fill-rule:nonzero;stroke:none"
         id="path26" />
      <path
         d="m 1395.37,466.699 c 0,2.801 -2.24,5.09 -4.99,5.09 h -59.33 c -2.74,0 -5,-2.289 -5,-5.09 V 364.98 c 0,-32.968 -15.92,-50.109 -37.45,-50.109 -16.35,0 -28.41,10.109 -28.41,39.117 v 112.711 c 0,2.801 -2.25,5.09 -4.99,5.09 h -60.62 c -2.75,0 -5,-2.289 -5,-5.09 v -135.57 c 0,-54.059 27.12,-84.391 71.47,-84.391 32.29,0 54.24,18.453 67.59,39.563 v -29.192 c 0,-2.808 2.25,-5.097 5,-5.097 h 56.74 c 2.75,0 5,2.289 5,5.097 l -0.01,209.59"
         style="fill:#0e87d2;fill-opacity:1;fill-rule:nonzero;stroke:none"
         id="path28" />
      <path
         d="m 1078.3,634.828 c 0,-2.797 2.29,-5.098 5.1,-5.098 h 60.09 c 2.8,0 5.09,2.301 5.09,5.098 v 132.93 c 0,55.832 -40.49,87.031 -85.74,87.031 -33.38,0 -63.996,-17.141 -74.985,-39.559 -12.292,27.258 -40.492,39.559 -69.921,39.559 -35.579,0 -60.489,-17.578 -73.227,-38.238 v 27.867 c 0,2.801 -2.297,5.102 -5.098,5.102 h -58.332 c -2.804,0 -5.093,-2.301 -5.093,-5.102 v -209.59 c 0,-2.797 2.289,-5.098 5.093,-5.098 h 60.082 c 2.805,0 5.102,2.301 5.102,5.098 l 0.004,101.723 c 0,30.328 14.769,50.109 41.129,50.109 21.523,0 39.64,-13.629 39.64,-41.32 V 634.828 c 0,-2.797 2.297,-5.098 5.106,-5.098 h 60.078 c 2.809,0 5.102,2.301 5.102,5.098 l 0.003,101.723 c 0,30.328 14.777,50.109 41.127,50.109 21.53,0 39.65,-13.629 39.65,-41.32 V 634.828"
         style="fill:#0e87d2;fill-opacity:1;fill-rule:nonzero;stroke:none"
         id="path30" />
      <path
         d="m 1186.72,812.25 c -1.43,-2.172 -0.99,-5.141 1.1,-6.781 l 35.83,-28.149 c 2.2,-1.73 5.42,-1.351 7.16,0.86 11.75,14.058 34.13,17.379 50.63,17.379 21.96,0 37.75,-8.27 37.75,-18.129 v -1.762 c 0,-3.949 -2.64,-6.148 -9.67,-7.027 l -59.3,-5.27 c -40.85,-3.519 -69.84,-29.902 -69.84,-69.461 0,-41.75 32.51,-68.57 73.8,-68.57 36.02,0 55.34,18.461 65.01,33.41 v -23.922 c 0,-2.797 2.29,-5.098 5.1,-5.098 h 60.08 c 2.81,0 5.09,2.301 5.09,5.098 l 0.01,125.902 c 0,66.379 -35.14,94.059 -101.03,94.059 -43.34,0 -82.66,-12.5 -101.72,-42.539 z m 132.47,-86.531 v -4.278 c 0,-24.191 -18.49,-41.261 -44.56,-41.261 -17.53,0 -27.01,7.59 -27.01,19.929 0,10.903 8.52,18.012 23.7,19.922 l 47.87,5.688"
         style="fill:#0e87d2;fill-opacity:1;fill-rule:nonzero;stroke:none"
         id="path32" />
      <path
         d="m 1576.82,634.828 c 0,-2.797 2.29,-5.098 5.09,-5.098 h 60.97 c 2.8,0 5.1,2.301 5.1,5.098 v 135.57 c 0,54.071 -26.61,84.391 -74.93,84.391 -34.27,0 -58.77,-18.449 -72.39,-38.238 v 27.867 c 0,2.801 -2.29,5.102 -5.09,5.102 l -58.33,0.011 c -2.81,0 -5.1,-2.301 -5.1,-5.101 V 634.828 c 0,-2.797 2.29,-5.098 5.1,-5.098 l 60.08,-0.011 c 2.81,0 5.1,2.301 5.1,5.101 v 101.731 c 0,32.969 16.33,50.109 39.61,50.109 21.09,0 34.79,-11.43 34.79,-40.441 V 634.828"
         style="fill:#0e87d2;fill-opacity:1;fill-rule:nonzero;stroke:none"
         id="path34" />
      <path
         d="m 2134.72,257.121 c 0,-2.82 2.27,-5.109 5.05,-5.109 h 60.36 c 2.77,0 5.05,2.289 5.05,5.097 v 135.563 c 0,54.066 -25.11,84.398 -72.95,84.398 -33.92,0 -54.99,-18.461 -68.47,-38.242 v 27.871 c 0,2.801 -2.28,5.09 -5.05,5.09 h -57.74 c -2.79,0 -5.05,-2.289 -5.05,-5.09 v -209.59 c 0,-2.808 2.26,-5.097 5.05,-5.097 L 2060.45,252 c 2.77,0 5.05,2.289 5.05,5.102 v 101.726 c 0,32.961 14.23,50.102 37.28,50.102 20.87,0 31.94,-11.418 31.94,-40.442 V 257.121"
         style="fill:#0e87d2;fill-opacity:1;fill-rule:nonzero;stroke:none"
         id="path36" />
      <path
         d="m 764.617,257.121 c 0,-2.82 2.274,-5.109 5.051,-5.109 h 60.355 c 2.774,0 5.047,2.289 5.047,5.097 v 135.563 c 0,54.066 -25.105,84.398 -72.941,84.398 -33.922,0 -54.988,-18.461 -68.473,-38.242 v 27.871 c 0,2.801 -2.269,5.09 -5.047,5.09 h -57.746 c -2.777,0 -5.047,-2.289 -5.047,-5.09 v -209.59 c 0,-2.808 2.27,-5.097 5.047,-5.097 L 690.352,252 c 2.773,0 5.043,2.289 5.043,5.102 v 101.726 c 0,32.961 14.234,50.102 37.281,50.102 20.875,0 31.941,-11.418 31.941,-40.442 V 257.121"
         style="fill:#0e87d2;fill-opacity:1;fill-rule:nonzero;stroke:none"
         id="path38" />
      <path
         d="m 1761.49,844.418 c 0,2.812 -2.29,5.102 -5.09,5.102 h -60.09 c -2.8,0 -5.1,-2.301 -5.1,-5.102 v -209.59 c 0,-2.797 2.3,-5.098 5.1,-5.098 h 60.09 c 2.8,0 5.09,2.301 5.09,5.098 z m -76.43,67.961 c 0,-23.738 17.57,-41.32 41.29,-41.32 23.72,0 41.3,17.582 41.3,41.32 0,23.742 -17.58,41.32 -41.3,41.32 -23.72,0 -41.29,-17.578 -41.29,-41.32"
         style="fill:#0e87d2;fill-opacity:1;fill-rule:nonzero;stroke:none"
         id="path40" />
      <path
         d="m 585.797,466.699 c 0,2.801 -2.27,5.09 -5.043,5.09 h -59.488 c -2.782,0 -5.051,-2.289 -5.051,-5.09 v -209.59 c 0,-2.808 2.269,-5.097 5.051,-5.097 h 59.488 c 2.773,0 5.043,2.289 5.043,5.097 z m -75.668,67.961 c 0,-23.742 17.394,-41.32 40.879,-41.32 23.484,0 40.879,17.578 40.879,41.32 0,23.738 -17.395,41.309 -40.879,41.309 -23.485,0 -40.879,-17.571 -40.879,-41.309"
         style="fill:#0e87d2;fill-opacity:1;fill-rule:nonzero;stroke:none"
         id="path42" />
      <path
         d="m 1148.58,554.621 c 0,2.797 -2.29,5.09 -5.09,5.09 h -60.09 c -2.81,0 -5.1,-2.293 -5.1,-5.09 v -297.5 c 0,-2.82 2.29,-5.109 5.1,-5.109 h 60.09 c 2.8,0 5.09,2.289 5.09,5.097 v 297.512"
         style="fill:#0e87d2;fill-opacity:1;fill-rule:nonzero;stroke:none"
         id="path44" />
      <path
         d="m 1709.72,466.699 c 0,2.801 -2.27,5.09 -5.05,5.09 h -59.48 c -2.78,0 -5.05,-2.289 -5.05,-5.09 v -209.59 c 0,-2.808 2.27,-5.097 5.05,-5.097 h 59.48 c 2.78,0 5.05,2.289 5.05,5.097 z m -75.67,67.961 c 0,-23.742 17.4,-41.32 40.88,-41.32 23.48,0 40.88,17.578 40.88,41.32 0,23.738 -17.4,41.309 -40.88,41.309 -23.48,0 -40.88,-17.571 -40.88,-41.309"
         style="fill:#0e87d2;fill-opacity:1;fill-rule:nonzero;stroke:none"
         id="path46" />
      <path
         d="m 1949.42,634.031 c -17.66,-4.211 -35.72,-6.492 -49.21,-6.492 -41.72,0 -67.2,20.652 -67.2,72.973 V 791.5 h -32.68 c -2.8,0 -5.1,2.301 -5.1,5.102 v 47.816 c 0,2.801 2.3,5.102 5.1,5.102 h 32.68 v 53.8 c 0,2.801 2.29,5.098 5.1,5.098 h 60.08 c 2.81,0 5.1,-2.297 5.1,-5.098 v -53.8 h 48.05 c 2.8,0 5.1,-2.301 5.1,-5.102 v -47.816 c 0,-2.801 -2.3,-5.102 -5.1,-5.102 h -48.05 v -76.488 c 0,-12.313 7.46,-15.821 20.21,-15.821 4.65,0 10.34,0.68 24.02,2.661 0.24,0.039 0.5,0.058 0.75,0.058 v 0 c 2.8,0 5.1,-2.289 5.1,-5.109 v 0 -57.801 0 c 0,-2.398 -1.69,-4.43 -3.95,-4.969"
         style="fill:#0e87d2;fill-opacity:1;fill-rule:nonzero;stroke:none"
         id="path48" />
      <path
         d="m 1012.97,390.852 c -9.38,9.449 -21.306,17.199 -37.837,17.199 -28.117,0 -46.703,-18.891 -46.703,-46.153 0,-27.25 18.832,-46.148 46.703,-46.148 16.508,0 28.337,7.809 37.687,17.281 0.9,0.91 2.14,1.489 3.51,1.508 v 0 c 1.82,0.031 3.44,-0.93 4.35,-2.379 l 30.24,-48.191 c 0.49,-0.778 0.77,-1.707 0.76,-2.688 v 0 c 0,-1.41 -0.57,-2.691 -1.5,-3.621 -18.21,-17.859 -43.84,-30.922 -76.301,-30.922 -62.981,0 -112.613,43.512 -112.613,115.16 0,71.653 49.632,115.172 112.613,115.172 32.451,0 58.181,-12.949 76.401,-30.789 0.94,-0.941 1.52,-2.23 1.52,-3.66 v 0 c 0,-0.98 -0.29,-1.91 -0.77,-2.703 l -30.27,-48.199 c -0.9,-1.418 -2.47,-2.36 -4.25,-2.348 v 0 c -1.37,0 -2.63,0.57 -3.54,1.481"
         style="fill:#0e87d2;fill-opacity:1;fill-rule:nonzero;stroke:none"
         id="path50" />
      <path
         d="m 351.797,318.379 c -10.867,-9.098 -20.293,-12.82 -32.524,-12.82 -20.796,0 -38.367,17.75 -38.367,38.761 0,17.621 8.231,32.371 23.805,42.649 l 0.398,0.261 0.266,-0.39 c 15.418,-22.449 31.887,-46.461 46.512,-67.801 l 0.254,-0.371 z m -23.109,197.57 c 11.863,0 19.832,-7.871 19.832,-19.59 0,-16.031 -12.27,-23.5 -23.098,-30.097 -1.192,-0.731 -2.371,-1.453 -3.524,-2.172 l -0.359,-0.231 -0.273,0.34 c -1.27,1.571 -12.418,15.77 -12.418,30.789 0,11.563 8.894,20.961 19.84,20.961 z m 133.707,-256.719 -35.969,52.219 0.179,0.289 c 25.922,39.532 30.438,77.66 32.606,95.992 0.246,2.11 0.473,3.989 0.691,5.59 0.036,0.282 0.047,0.578 0.032,0.891 -0.075,1.238 -0.625,2.379 -1.555,3.219 -0.934,0.84 -2.125,1.261 -3.363,1.179 H 405.41 c -2.113,-0.129 -3.894,-1.781 -4.219,-3.918 -0.007,-0.191 -1.429,-24.011 -11.878,-48.011 l -0.352,-0.801 -36.324,52.75 6.347,4.199 c 26.645,20.531 44.414,41.453 44.414,76.711 0,20.481 -7.152,39.441 -20.136,53.41 -13.516,14.539 -32.614,22.539 -53.774,22.539 -30.297,0 -56.297,-15.297 -69.547,-40.918 -15.113,-29.218 -10.789,-66.031 11.559,-98.461 l 0.941,-1.371 -0.453,-0.258 c -33.785,-20.019 -51.644,-51.808 -51.644,-91.921 0,-25.239 8,-48.438 22.527,-65.34 16.863,-19.617 41.945,-30 72.512,-30 19.34,0 44.867,2.383 70.824,20.84 l 0.398,0.3 9.993,-14.57 c 0.863,-1.129 2.175,-1.777 3.597,-1.777 h 58.45 c 2.511,0 4.558,2.058 4.558,4.597 0,0.942 -0.277,1.84 -0.808,2.621"
         style="fill:#0e87d2;fill-opacity:1;fill-rule:nonzero;stroke:none"
         id="path52" />
      <path
         d="m 1457.56,321.648 c 14.63,-7.878 49.64,-16.488 66.47,-15.57 13.46,0.731 17.98,5.602 17.95,10.43 -0.05,7.863 -5.63,10.07 -47,21.082 -28.67,7.621 -57.69,28.691 -57.69,66.512 0,47.918 31.94,72.968 89.17,72.968 33.16,0 58.51,-8.422 77.69,-20.609 1.39,-0.891 2.33,-2.52 2.33,-4.359 v 0 c 0.01,-0.973 -0.24,-1.872 -0.67,-2.641 l -22.79,-40.93 c -0.83,-1.519 -2.4,-2.59 -4.2,-2.672 v 0 c -0.88,-0.039 -1.71,0.161 -2.42,0.539 -14.63,7.883 -38.88,12.793 -55.72,11.872 -13.46,-0.731 -17.94,-6.7 -17.94,-11.532 0,-5.277 5.32,-10.41 47.02,-20.078 36.37,-8.351 57.68,-28.691 57.68,-66.519 0,-47.871 -31.52,-73.403 -91.62,-73.403 -37.37,0 -68.21,8.59 -87.37,24.301 -1.18,0.973 -1.95,2.551 -1.9,4.301 v 0 c 0.03,0.93 0.28,1.789 0.68,2.531 l 23.27,41.91 c 0.85,1.559 2.48,2.637 4.31,2.68 v 0 c 1.03,0.019 1.98,-0.27 2.75,-0.813"
         style="fill:#0e87d2;fill-opacity:1;fill-rule:nonzero;stroke:none"
         id="path54" />
    </g>
  </g>
</svg>
